<svg width="60" height="60" fill="none" xmlns="http://www.w3.org/2000/svg"><g clip-path="url(#a)" fill="#FBBE07"><path d="M36.92 42.385h-3.29a.879.879 0 0 0 0 1.758h3.29a.879.879 0 1 0 0-1.758Z"/><path d="m56.28 32.976-4.787-1.846-2.44-2.44a.875.875 0 0 0-.565-.255v-1.942a9.064 9.064 0 0 0 2.3-4.528c.204.009.411-.008.616-.05 1.17-.239 2.018-1.324 2.018-2.58v-.64c0-.726-.295-1.393-.774-1.87.776-4.22.137-7.66-1.857-9.963-1.929-2.227-5.036-3.291-8.985-3.078-3.649.198-6.004 1.876-6.75 2.49a4.63 4.63 0 0 0-1.81.615c-.976.586-2.14 1.816-2.14 4.351 0 2.212.354 4.058.61 5.106-.858.418-1.431 1.323-1.431 2.359v.63c0 1.256.848 2.341 2.018 2.58.204.042.411.059.616.05a9.066 9.066 0 0 0 2.3 4.528v1.942a.875.875 0 0 0-.566.254l-2.44 2.44-4.786 1.847c-.414.16-.81.366-1.175.615a.879.879 0 0 0 .988 1.454 4.07 4.07 0 0 1 .82-.43l4.442-1.713 3.396 5.095A2.514 2.514 0 0 0 38 39.12c.437 0 .862-.114 1.237-.327l-.729 16.532a.879.879 0 1 0 1.756.077l.677-15.345h1.825l.676 15.345a.879.879 0 1 0 1.756-.078l-.729-16.531a2.508 2.508 0 0 0 1.489.315 2.514 2.514 0 0 0 1.85-1.111l3.397-5.095 4.442 1.714c.623.24 1.159.623 1.58 1.101l-3.038 3.04a5.775 5.775 0 0 0-1.703 4.11v12.496a.879.879 0 0 0 1.758 0V42.866c0-1.083.422-2.1 1.188-2.867l2.666-2.667c.108.393.158.806.14 1.229l-.68 16.767a.88.88 0 0 0 1.756.071l.681-16.767a5.81 5.81 0 0 0-3.716-5.656ZM34.64 21.602c-.155-.844-.937-1.457-1.78-1.395a.753.753 0 0 1-.205-.014c-.349-.071-.613-.44-.613-.857v-.631c0-.408.273-.775.62-.836a.764.764 0 0 1 .753.288c.161.21.377.36.622.435.36.108.757.045 1.062-.17a6.383 6.383 0 0 0 1.442-1.41.879.879 0 1 0-1.411-1.049c-.203.273-.432.52-.684.74a2.514 2.514 0 0 0-.953-.51 20.215 20.215 0 0 1-.628-4.953c0-1.346.415-2.292 1.233-2.811.639-.405 1.314-.421 1.314-.421a.887.887 0 0 0 .606-.243c.022-.02 2.182-2.025 5.883-2.225 3.386-.183 6.001.672 7.56 2.473 1.573 1.815 2.096 4.602 1.528 8.09a3.81 3.81 0 0 0-.75.052l-.825-1.983a.88.88 0 0 0-1.034-.512c-.082.02-8.198 2.079-11.601-2.159a.879.879 0 1 0-1.37 1.101c3.475 4.327 10.37 3.386 12.666 2.927l.639 1.533c.274.66.977 1.02 1.669.856.284-.067.555-.068.657-.048.356.07.624.425.624.825v.64c0 .418-.264.787-.613.858a.745.745 0 0 1-.205.014c-.843-.061-1.624.551-1.78 1.395a7.332 7.332 0 0 1-7.213 6.008 7.332 7.332 0 0 1-7.213-6.008Zm3.899 15.537a.755.755 0 0 1-.617.22.755.755 0 0 1-.562-.337l-3.42-5.132 1.375-1.376 5.252 4.596-2.028 2.029Zm2.48 1.16.053-1.207.781-.782.782.782.053 1.207h-1.67Zm.834-4.4-4.877-4.267v-1.683a9.068 9.068 0 0 0 4.877 1.418c1.782 0 3.46-.516 4.877-1.418v1.683l-4.877 4.267Zm4.493 3.123a.755.755 0 0 1-.561.337.755.755 0 0 1-.617-.22l-2.029-2.03 5.252-4.595 1.376 1.376-3.42 5.132Z"/><path d="m27.873 37.582-4.292-1.873-2.346-2.346a.873.873 0 0 0-.565-.255v-1.383a9.078 9.078 0 0 0 3.944-5.91c.23.01.464-.012.693-.066 1.125-.266 1.941-1.344 1.941-2.562v-.641a2.62 2.62 0 0 0-1.126-2.162 9.94 9.94 0 0 0 .304-2.434c0-3.642-1.968-6.849-4.935-8.69-.032-3.04-2.626-5.503-5.811-5.503-3.186 0-5.78 2.464-5.811 5.503-2.967 1.841-4.935 5.049-4.935 8.69 0 .819.101 1.632.302 2.428a2.626 2.626 0 0 0-1.125 2.177v.632c0 1.218.816 2.296 1.941 2.562.23.055.463.077.694.066a9.078 9.078 0 0 0 3.943 5.91v1.383a.873.873 0 0 0-.564.255l-2.346 2.346-4.292 1.873a5.85 5.85 0 0 0-3.482 5.573l.52 12.246a.879.879 0 0 0 1.755-.075l-.519-12.245a4.047 4.047 0 0 1 .558-2.214l2.306 2.769a4.886 4.886 0 0 1 1.13 3.122v8.605a.879.879 0 0 0 1.759 0v-8.605a6.648 6.648 0 0 0-1.538-4.248l-2.453-2.943c.209-.143.43-.27.667-.374l3.74-1.633 2.643 4.29a1.699 1.699 0 0 0 2.553.402l1.675-1.429v14.54a.879.879 0 0 0 1.758 0v-14.54l1.675 1.43a1.7 1.7 0 0 0 2.552-.402l2.643-4.29 3.74 1.632c.237.103.459.23.668.374l-2.453 2.943a6.648 6.648 0 0 0-1.538 4.248v8.606a.879.879 0 0 0 1.758 0v-8.606c0-1.139.402-2.248 1.13-3.122l2.307-2.769c.386.66.59 1.425.558 2.214l-.52 12.245a.879.879 0 0 0 1.757.075l.519-12.246a5.85 5.85 0 0 0-3.482-5.573ZM15.68 5.515c1.87 0 3.447 1.193 3.914 2.81a11.066 11.066 0 0 0-3.914-.71c-1.38 0-2.7.251-3.914.71.466-1.617 2.044-2.81 3.914-2.81ZM8.466 25.453c-.155-.844-.937-1.457-1.78-1.395a.762.762 0 0 1-.229-.02c-.335-.079-.588-.445-.588-.851v-.632c0-.407.273-.774.62-.836a.764.764 0 0 1 .752.288c.162.21.377.361.623.436.36.108.757.044 1.062-.171a6.378 6.378 0 0 0 1.422-1.384.879.879 0 1 0-1.405-1.055c-.2.265-.424.506-.67.72a2.518 2.518 0 0 0-1.327-.583 8.186 8.186 0 0 1-.255-2.02c0-4.73 4.032-8.578 8.989-8.578 4.956 0 8.988 3.848 8.988 8.578 0 .68-.085 1.355-.253 2.016a4.03 4.03 0 0 0-.684.113l-.66-.544a1.687 1.687 0 0 0-1.174-.384c-1.292.076-7.908.25-11.302-3.812a.879.879 0 0 0-1.35 1.127c1.675 2.004 4.13 3.359 7.299 4.027 2.426.512 4.582.462 5.427.414l1.031.848a.877.877 0 0 0 1 .081c.148-.081.648-.159.865-.115.356.07.624.425.624.825v.64c0 .407-.253.773-.588.853a.749.749 0 0 1-.23.02c-.841-.062-1.625.55-1.78 1.394a7.332 7.332 0 0 1-7.213 6.008 7.332 7.332 0 0 1-7.214-6.008Zm3.57 15.42L9.392 36.58l1.354-1.354 3.64 3.64-2.35 2.005Zm3.644-3.198-3.233-3.233v-1.818a9.072 9.072 0 0 0 6.465 0v1.818l-3.232 3.233Zm3.644 3.197-2.35-2.005 3.64-3.64 1.354 1.354-2.644 4.291Z"/><path d="M12.39 46.262H9.925a.879.879 0 0 0 0 1.758h2.467a.879.879 0 0 0 0-1.758Z"/></g><defs><clipPath id="a"><path fill="#fff" d="M0 0h60v60H0z"/></clipPath></defs></svg>