<svg width="55" height="40" fill="none" xmlns="http://www.w3.org/2000/svg"><g clip-path="url(#a)" fill="#FBBE07"><path d="M52.47 28.373v-4.718a8.924 8.924 0 0 0-3.592-7.141h1.243a2.818 2.818 0 0 0 0-5.635h-3.823l-1.696-6.392-.01-.032A6.042 6.042 0 0 0 38.768 0H21.769c-.568 0-.874.453-.874.895 0 .443.295.895.874.895h16.999c1.485 0 2.854.78 3.623 2.033H11.743a4.232 4.232 0 0 1 3.623-2.033h2.254c.569 0 .874-.452.874-.895 0-.442-.295-.895-.874-.895h-2.254a6.061 6.061 0 0 0-5.835 4.466l-1.706 6.413H4.034a2.818 2.818 0 0 0 0 5.635h1.2a8.924 8.924 0 0 0-3.591 7.14v4.719A2.275 2.275 0 0 0 0 30.563v2.307a2.279 2.279 0 0 0 2.275 2.275h2.317v2.696c0 1.19.969 2.159 2.159 2.159h5.993c1.19 0 2.159-.969 2.159-2.159v-2.696H39.23v2.696c0 1.19.97 2.159 2.16 2.159h5.981c1.19 0 2.16-.969 2.16-2.159v-2.696h2.316a2.279 2.279 0 0 0 2.275-2.275v-2.306a2.247 2.247 0 0 0-1.653-2.191Zm-4.73 6.772v2.696c0 .2-.168.369-.368.369H41.39a.373.373 0 0 1-.368-.369v-2.696h6.719ZM12.745 38.21H6.76a.373.373 0 0 1-.368-.369v-2.696h6.73v2.696a.382.382 0 0 1-.38.369ZM50.12 14.724H47.31l-.547-2.054h3.349c.558 0 1.021.463 1.021 1.032a1.007 1.007 0 0 1-1.01 1.021Zm-6.561.02H10.574c-.664 0-1.316.074-1.97.222l2.476-9.342h31.964l2.475 9.342a8.726 8.726 0 0 0-1.96-.221Zm-1.464 15.05a.942.942 0 0 0 .221-.61c0-.443-.295-.895-.874-.895H3.454v-4.634a7.124 7.124 0 0 1 7.12-7.12H43.56a7.124 7.124 0 0 1 7.12 7.12v4.634h-5.077c-.569 0-.874.452-.874.895 0 .442.295.895.874.895h6.256a.49.49 0 0 1 .484.485v2.306a.49.49 0 0 1-.484.484H2.275a.49.49 0 0 1-.485-.484v-2.306a.49.49 0 0 1 .485-.485h39.157a.88.88 0 0 0 .664-.284ZM4.044 12.67h3.318l-.548 2.053h-2.77a1.032 1.032 0 0 1-1.021-1.032 1.03 1.03 0 0 1 1.021-1.021Z"/><path d="M10.721 19.041c-2.2 0-3.991 1.801-3.991 4.013 0 2.212 1.79 4.013 3.991 4.013 2.202 0 3.992-1.801 3.992-4.013a3.994 3.994 0 0 0-3.992-4.012Zm2.212 4.013c0 1.222-.99 2.222-2.201 2.222s-2.201-1-2.201-2.222.99-2.222 2.201-2.222 2.201 1 2.201 2.222ZM47.404 23.054c0-2.212-1.79-4.012-3.992-4.012-2.2 0-3.991 1.8-3.991 4.012 0 2.212 1.79 4.013 3.991 4.013 2.202 0 3.992-1.801 3.992-4.013Zm-1.79 0c0 1.222-.99 2.222-2.202 2.222-1.21 0-2.2-1-2.2-2.222s.99-2.222 2.2-2.222c1.212 0 2.202 1 2.202 2.222ZM35.64 20.769H18.494c-.495 0-.895.4-.895.895v3.591c0 .495.4.896.895.896H35.64c.495 0 .895-.4.895-.896v-3.591a.884.884 0 0 0-.263-.632.884.884 0 0 0-.632-.263Zm-.895 3.591H19.389v-1.8h15.356v1.8Z"/></g><defs><clipPath id="a"><path fill="#fff" d="M0 0h54.134v40H0z"/></clipPath></defs></svg>