<svg width="47" height="50" fill="none" xmlns="http://www.w3.org/2000/svg"><g clip-path="url(#a)" fill="#FBBE07"><path d="M37.12 48.346H2.773a1.119 1.119 0 0 1-1.118-1.118V27.47a.826.826 0 1 0-1.654 0v19.757A2.777 2.777 0 0 0 2.772 50h34.349a.826.826 0 1 0 0-1.654ZM43.667 23.19h-2.052V12.443a.833.833 0 0 0-.243-.584l-4.135-4.134V2.286A2.283 2.283 0 0 0 34.951 0H6.518a2.283 2.283 0 0 0-2.286 2.286v16.08H2.286A2.283 2.283 0 0 0 0 20.652v3.404a.826.826 0 1 0 1.654 0v-3.404c0-.35.282-.633.632-.633h11.576a.64.64 0 0 1 .564.34l2.12 4.048a.837.837 0 0 0 .73.447h26.391c.623 0 1.119.506 1.119 1.119v21.255c0 .622-.506 1.118-1.119 1.118h-3.151a.826.826 0 1 0 0 1.654h3.151a2.777 2.777 0 0 0 2.773-2.772V25.973a2.767 2.767 0 0 0-2.773-2.782Zm-7.675-1.245a.826.826 0 1 0 0-1.653H16.265l-.37-.7a2.283 2.283 0 0 0-2.023-1.226h-2.938V6.109c0-.662.535-1.197 1.196-1.197h19.485v5.516a2.854 2.854 0 0 0 2.85 2.85h5.515V23.2H17.782l-.652-1.245h18.862v-.01Zm-1.537-10.33a1.196 1.196 0 0 1-1.196-1.197V6.08l5.535 5.535h-4.339Zm1.138-5.535-2.577-2.578a.834.834 0 0 0-.584-.243H12.12a2.854 2.854 0 0 0-2.85 2.85v12.257H5.884V2.286c0-.35.282-.632.633-.632H34.96c.35 0 .632.282.632.632V6.08Z"/><path d="M35.992 15.467H14.99a.826.826 0 1 0 0 1.654h21.002a.826.826 0 1 0 0-1.654Z"/></g><defs><clipPath id="a"><path fill="#fff" d="M0 0h46.449v50H0z"/></clipPath></defs></svg>