<svg width="142" height="50" fill="none" xmlns="http://www.w3.org/2000/svg"><path d="m4.355 24.685 20.33 20.33 20.328-20.33L24.685 4.356l-20.33 20.33Zm5.954 8.865-2.054-2.053-6.803-6.807 6.803-6.806 2.054-2.054v-5.517h5.514l8.857-8.861 6.803 6.807 2.053 2.053h5.516v5.517l2.052 2.055 6.804 6.806-6.804 6.806-2.052 2.054v5.518h-5.516l-2.053 2.054-6.803 6.806-6.803-6.806-2.054-2.054H10.31V33.55ZM24.679 0l-8.254 8.257h-8.17v8.172L0 24.685l8.255 8.257v8.172h8.17l8.255 8.257 8.255-8.257h8.17V32.94l8.255-8.257-8.256-8.256V8.256h-8.17L24.68 0Z" fill="#00805F"/><path d="m1.448 24.682 8.856-8.859v-5.516h5.516l8.856-8.859 8.856 8.859h5.515v5.517l8.858 8.857-8.857 8.859v5.517h-5.515l-8.856 8.858-8.856-8.858h-5.516V33.54l-8.857-8.858Zm8.854 5.95c3.429-4.135 8.599-6.773 14.368-6.774 4.452 0 8.084-3.632 8.084-8.087 0-2.103-.81-4.024-2.133-5.465L24.67 4.353l-5.952 5.954-8.415 8.419-5.951 5.954 5.95 5.954v-.001Zm28.745-11.901c-3.429 4.135-8.6 6.774-14.371 6.774-4.454.001-8.086 3.634-8.086 8.088 0 2.103.81 4.023 2.134 5.465h-.002l5.954 5.953 5.953-5.953 8.418-8.42 5.954-5.954-5.954-5.953Z" fill="#FAAE17"/><path d="M75.597 41.116H71.49l7.801-15.607h4.106L91.2 41.115h-4.107l-1.23-2.465h-9.035l-1.231 2.465ZM50.137 25.51h15.81a3.913 3.913 0 0 1 3.9 3.901 3.912 3.912 0 0 1-3.9 3.902 3.913 3.913 0 0 1 3.9 3.902 3.913 3.913 0 0 1-3.9 3.902h-15.81V25.51Zm0-17.25h4.108v6.571H65.74V8.26h4.106v15.606h-4.106v-6.57H54.245v6.57h-4.107V8.26Zm35.725 13.143h-9.034l-1.231 2.463H71.49L79.291 8.26h4.106L91.2 23.865h-4.107l-1.23-2.463Zm-7.802-2.456h6.57l-3.285-6.58-3.285 6.58ZM92.842 8.259h4.106v13.143h11.498v2.463H92.842V8.26ZM114.2 23.865h-4.109v-6.57l-7.804-9.036h4.108l5.751 6.571 5.751-6.571h4.107l-7.804 9.036v6.57Zm9.028-15.606h4.108v6.571l9.039-6.571h4.518l-10.599 7.803 10.599 7.803h-4.518l-9.039-6.57v6.57h-4.108V8.26Zm8.623 32.857h-4.516l-9.034-6.571v6.571h-4.107V25.51h4.107v6.571l9.034-6.571h4.516l-10.594 7.803 10.594 7.804ZM92.842 25.51h4.106l11.498 11.5v-11.5h4.106v15.607h-4.106l-11.498-11.5v11.5h-4.106V25.51Zm-38.597 2.464v4.107h9.444a2.06 2.06 0 0 0 2.052-2.053 2.06 2.06 0 0 0-2.052-2.054h-9.444Zm0 6.572v4.115h9.444a2.061 2.061 0 0 0 2.052-2.057 2.063 2.063 0 0 0-2.052-2.058h-9.444Zm30.385 1.65-3.284-6.58-3.286 6.58h6.57Z" fill="#008060"/></svg>