<svg width="55" height="55" fill="none" xmlns="http://www.w3.org/2000/svg"><g clip-path="url(#a)" fill="#FBBE07"><path d="M54.192 25.223a.808.808 0 0 0 .808-.808v-7.758a5.39 5.39 0 0 0-5.385-5.385H47.95v-1.069a2.037 2.037 0 0 0-2.034-2.034h-1.439a2.037 2.037 0 0 0-2.034 2.034v1.07H38.33v-1.07c0-.95-.657-1.75-1.54-1.97v-1.79a4.343 4.343 0 0 0-4.338-4.338H29.22a.808.808 0 1 0 0 1.615h3.23a2.726 2.726 0 0 1 2.723 2.723v1.726H33.56V6.443c0-.61-.497-1.107-1.107-1.107h-9.796c-.611 0-1.108.496-1.108 1.107v1.726h-1.615V6.443a2.726 2.726 0 0 1 2.723-2.723h3.123a.808.808 0 1 0 0-1.615h-3.123a4.343 4.343 0 0 0-4.338 4.338v1.79a2.036 2.036 0 0 0-1.54 1.97v1.07h-4.114v-1.07A2.037 2.037 0 0 0 10.63 8.17H9.191a2.037 2.037 0 0 0-2.034 2.034v1.07H5.385A5.39 5.39 0 0 0 0 16.656v30.854a5.39 5.39 0 0 0 5.385 5.384h44.23A5.39 5.39 0 0 0 55 47.511V27.857a.808.808 0 1 0-1.615 0v19.654c0 2.078-1.691 3.769-3.77 3.769h-5.637V33.67h.172a3.8 3.8 0 0 0 3.795-3.795v-3.982a3.8 3.8 0 0 0-3.795-3.795h-.172v-9.21h5.637c2.079 0 3.77 1.69 3.77 3.769v7.758c0 .446.361.808.807.808Zm-15.46-3.125a3.8 3.8 0 0 0-3.795 3.795v3.982a3.8 3.8 0 0 0 3.795 3.795h.172v17.61h-22.7v-5.8l4.743-1.687a1.619 1.619 0 0 0 .981-2.065l-1.63-4.581a1.619 1.619 0 0 0-2.065-.981l-2.03.722V33.67h.173a3.8 3.8 0 0 0 3.795-3.795v-3.982a3.8 3.8 0 0 0-3.795-3.795h-.172v-9.21h22.7v9.21h-.172ZM11.13 45.57l-2.573.914-1.629-4.582 4.202-1.495v5.163Zm-.172-13.516a2.182 2.182 0 0 1-2.18-2.18v-3.982c0-1.202.978-2.18 2.18-2.18h5.418c1.201 0 2.18.978 2.18 2.18v3.982c0 1.202-.979 2.18-2.18 2.18h-5.418Zm5.246 6.547 2.572-.913 1.63 4.582-4.202 1.495v-5.163Zm15.815-27.33v-1.069a.42.42 0 0 1 .419-.419h3.858a.42.42 0 0 1 .419.42v1.068h-4.696Zm-.075-4.321v1.281a2.036 2.036 0 0 0-1.54 1.971v1.07h-5.7v-1.07c0-.95-.657-1.75-1.54-1.97V6.95h8.78Zm-13.551 3.252a.42.42 0 0 1 .419-.419h3.858a.42.42 0 0 1 .419.42v1.068h-4.696v-1.069Zm-9.62 0a.42.42 0 0 1 .418-.419h1.44a.42.42 0 0 1 .418.42v1.068H8.773v-1.069ZM1.615 47.511V16.657c0-2.079 1.691-3.77 3.77-3.77h5.745v2.867a.808.808 0 0 0 1.615 0v-2.866h1.843v9.21h-1.843v-2.902a.808.808 0 0 0-1.615 0v2.902h-.172a3.8 3.8 0 0 0-3.795 3.795v3.982a3.8 3.8 0 0 0 3.795 3.795h.172v5.023l-4.743 1.688c-.407.145-.733.44-.919.83-.185.39-.207.828-.062 1.235l1.63 4.58c.144.408.44.734.83.92a1.612 1.612 0 0 0 1.235.062l2.03-.722v3.994H5.384a3.774 3.774 0 0 1-3.77-3.77Zm11.13 3.769V33.67h1.843v17.61h-1.843Zm29.617 0H40.52V33.67h1.843v17.61Zm3.967-25.387v3.982c0 1.202-.977 2.18-2.18 2.18h-5.417a2.182 2.182 0 0 1-2.18-2.18v-3.982c0-1.202.978-2.18 2.18-2.18h5.418c1.202 0 2.18.978 2.18 2.18Zm-5.81-3.795v-9.21h1.843v9.21H40.52Zm3.54-10.826v-1.069a.42.42 0 0 1 .418-.419h1.44a.42.42 0 0 1 .418.42v1.068H44.06Z"/><path d="M16.94 29.632v-3.496a.808.808 0 0 0-.808-.808h-4.93a.808.808 0 0 0-.808.808v3.496c0 .446.361.807.807.807h4.931a.808.808 0 0 0 .808-.807Zm-1.615-.808h-3.316v-1.88h3.316v1.88ZM38.168 26.136v3.496c0 .446.361.807.807.807h4.931a.808.808 0 0 0 .808-.807v-3.496a.808.808 0 0 0-.807-.808h-4.931a.808.808 0 0 0-.808.808Zm1.615.808H43.1v1.88h-3.316v-1.88ZM34.111 20.657a1.142 1.142 0 0 0-.512-1.1l-5.827-3.807a1.145 1.145 0 0 0-.98-.132 1.145 1.145 0 0 0-.72.676l-2.656 6.799c-.166.424-.072.89.244 1.217a1.138 1.138 0 0 0 1.21.285l8.482-2.99c.416-.148.707-.51.76-.948Zm-8.82 2.077 2.077-5.318 4.558 2.978-6.636 2.34ZM27.078 42.99c0 2.641 2.149 4.79 4.79 4.79a4.795 4.795 0 0 0 4.79-4.79 4.795 4.795 0 0 0-4.79-4.79 4.795 4.795 0 0 0-4.79 4.79Zm7.964 0a3.178 3.178 0 0 1-3.174 3.174 3.178 3.178 0 0 1-3.174-3.174 3.178 3.178 0 0 1 3.174-3.174 3.178 3.178 0 0 1 3.174 3.174Z"/></g><defs><clipPath id="a"><path fill="#fff" d="M0 0h55v55H0z"/></clipPath></defs></svg>