<svg width="57" height="57" fill="none" xmlns="http://www.w3.org/2000/svg"><path d="M55.219 9.797V4.453a.89.89 0 0 0-.89-.89H9.796a.89.89 0 0 0-.89.89v4.453H8.06a3.126 3.126 0 0 0-3.057 2.506l-1.245 6.226 1.747.35 1.245-6.226a1.34 1.34 0 0 1 1.31-1.075h.78v17.59a2.006 2.006 0 0 0 2.003 2.004h1.626a.89.89 0 0 0 .695-.334l6.598-8.247.372.265a5.784 5.784 0 0 1 1.505 7.841l-.01.016-5.466 8.9a.89.89 0 0 0-.132.465V55.22h1.782v-8.65a7.61 7.61 0 0 0 2.56 1.122c1.694.391 3.47.188 5.032-.575l.4-.196a.89.89 0 0 0 .409-1.19l-.753-1.539a7.507 7.507 0 0 0 4.744-.637l.4-.196a.891.891 0 0 0 .41-1.191l-1.13-2.308 15.6 4.39a2.003 2.003 0 0 0 2.472-1.385l3.542-12.583h2.83a.89.89 0 0 0 .89-.89V11.578h-1.782V28.5H24.12c.145-.583.22-1.18.223-1.781h23.013a.89.89 0 0 0 .84-1.188 1.782 1.782 0 0 1 2.273-2.273.892.892 0 0 0 1.187-.84V10.535a.89.89 0 0 0-1.187-.84 1.781 1.781 0 0 1-2.375-1.68.89.89 0 0 0-.89-.89H16.03a.89.89 0 0 0-.89.89 1.783 1.783 0 0 1-1.782 1.782.891.891 0 0 0-.89.89v11.579a.89.89 0 0 0 .89.89 1.785 1.785 0 0 1 1.76 1.497L12.04 28.5h-1.198a.223.223 0 0 1-.222-.223V9.797h.066V5.344h42.75v4.453h1.782ZM17.812 44.23v-4.792l1.088-1.77 1.178 2.41a7.517 7.517 0 0 0 2.953 3.195l1.184 2.421a5.833 5.833 0 0 1-6.402-1.464Zm11.203-2.097a5.79 5.79 0 0 1-7.336-2.838l-.992-2.027 6.898 1.942 1.43 2.923Zm17.227.247a.223.223 0 0 1-.274.154L20.342 35.32l1.217-1.98 20.102 6.13a.892.892 0 0 0 1.13-.663 1.78 1.78 0 0 1 2.12-1.36.89.89 0 0 0 1.05-.642l1.738-6.525h1.95l-3.407 12.1Zm-.387-12.1-1.423 5.345a3.588 3.588 0 0 0-3.05 1.898l-18.86-5.752.62-1.01c.102-.158.197-.318.285-.48h22.428ZM14.25 21.488V11.465a3.575 3.575 0 0 0 2.56-2.559h29.615a3.569 3.569 0 0 0 3.45 2.672v9.797a3.567 3.567 0 0 0-3.563 3.563H24.14a7.547 7.547 0 0 0-2.97-4.422l-1.059-.756a.89.89 0 0 0-1.213.168l-2.51 3.137a3.575 3.575 0 0 0-2.138-1.577Z" fill="#FBBE07"/><path d="m3.581 27.603 1.567-7.835-1.746-.349-1.603 8.016a.891.891 0 0 0 .002.361l2.652 12.377v15.046h1.781v-15.14a.891.891 0 0 0-.02-.187L3.582 27.603ZM32.063 23.156a6.235 6.235 0 1 0-6.235-6.234 6.241 6.241 0 0 0 6.235 6.234Zm0-10.687a4.453 4.453 0 1 1 0 8.906 4.453 4.453 0 0 1 0-8.906ZM48.094 12.469H42.75v1.781h5.344v-1.781Z" fill="#FBBE07"/></svg>