<svg width="60" height="52" fill="none" xmlns="http://www.w3.org/2000/svg"><path d="M19.204 23.654a15.896 15.896 0 0 0-4.393-.641c-2.22 0-4.072.507-5.509 1.128 1.385-5.069 4.711-13.815 11.337-14.8a1.574 1.574 0 0 0 1.284-1.132l1.448-5.18a1.573 1.573 0 0 0-1.301-1.983c-.49-.066-.988-.1-1.482-.1-7.953 0-15.83 8.301-19.154 20.188-1.95 6.973-2.523 17.457 2.283 24.056 2.69 3.693 6.613 5.665 11.662 5.862l.062.001c6.23 0 11.753-4.195 13.434-10.202 1.003-3.59.55-7.356-1.28-10.605-1.809-3.213-4.789-5.555-8.391-6.592ZM58.2 30.246c-1.81-3.213-4.79-5.555-8.393-6.592a15.895 15.895 0 0 0-4.392-.641c-2.22 0-4.073.507-5.51 1.128 1.386-5.069 4.712-13.815 11.338-14.8a1.575 1.575 0 0 0 1.284-1.132l1.449-5.18a1.573 1.573 0 0 0-1.302-1.983c-.488-.066-.987-.1-1.481-.1-7.954 0-15.83 8.301-19.155 20.188-1.95 6.973-2.523 17.457 2.284 24.058 2.689 3.691 6.613 5.664 11.661 5.86l.062.002c6.23 0 11.754-4.196 13.434-10.202a13.875 13.875 0 0 0-1.28-10.606Z" fill="#FFF5D7"/></svg>