<svg width="45" height="53" fill="none" xmlns="http://www.w3.org/2000/svg"><path d="M42.864 1.165A3.93 3.93 0 0 0 40.059 0H3.97A3.978 3.978 0 0 0 0 3.97V46.09a3.978 3.978 0 0 0 3.97 3.97.876.876 0 1 0 0-1.753 2.214 2.214 0 0 1-2.217-2.217V3.97c0-1.227.99-2.217 2.217-2.217h36.09c1.226 0 2.216.99 2.216 2.217V46.09c0 1.227-.99 2.217-2.217 2.217H7.001a.897.897 0 0 0-.69.32.896.896 0 0 0-.186.732l.34 1.691A2.437 2.437 0 0 0 8.837 53h4.681a2.41 2.41 0 0 0 2.372-1.949l.196-.99h10.796l.195.99A2.437 2.437 0 0 0 29.45 53h4.681a2.41 2.41 0 0 0 2.372-1.949l.196-.99h3.33a3.978 3.978 0 0 0 3.97-3.97V3.97c.031-1.062-.381-2.052-1.134-2.805Zm-8.053 49.546a.674.674 0 0 1-.66.536H29.47a.674.674 0 0 1-.66-.536l-.134-.65h6.259l-.124.65Zm-20.623 0a.674.674 0 0 1-.66.536h-4.68a.674.674 0 0 1-.66-.536l-.135-.65h6.26l-.125.65Z" fill="#FBBE07"/><path d="M22.015 14.88c-5.6 0-10.157 4.557-10.157 10.156s4.558 10.156 10.157 10.156S32.17 30.635 32.17 25.036c0-5.61-4.557-10.157-10.156-10.157Zm-.877 15.6v2.918a8.278 8.278 0 0 1-4.413-1.825l2.062-2.062a5.641 5.641 0 0 0 2.351.97Zm-3.588-2.217-2.063 2.063a8.279 8.279 0 0 1-1.825-4.414h2.918c.124.835.465 1.65.97 2.351Zm-.01-6.465a5.375 5.375 0 0 0-.97 2.361h-2.918a8.278 8.278 0 0 1 1.825-4.413l2.063 2.052Zm9.764 9.765a8.278 8.278 0 0 1-4.413 1.825V30.47a5.504 5.504 0 0 0 2.351-.98l2.062 2.073ZM22.891 19.58v-2.918a8.279 8.279 0 0 1 4.413 1.825l-2.062 2.062a5.641 5.641 0 0 0-2.351-.969Zm-4.588 4.826a3.758 3.758 0 0 1 1.051-2.042.888.888 0 0 0 .114-1.093l.02-.01-2.763-2.764a8.278 8.278 0 0 1 4.413-1.825V20.581h.02c.083.392.444.691.857.691 1.113 0 2.155.485 2.866 1.33a3.79 3.79 0 0 1 .846 3.063c-.34 2.041-2.29 3.423-4.341 3.083a3.783 3.783 0 0 1-3.084-4.341Zm8.176 3.856a5.435 5.435 0 0 0 .97-2.35h2.918a8.278 8.278 0 0 1-1.825 4.413l-2.063-2.063Zm3.898-4.104h-2.918a5.505 5.505 0 0 0-.98-2.35l2.063-2.063a8.338 8.338 0 0 1 1.835 4.413Z" fill="#FBBE07"/><path d="M36.966 6.187H7.063a.876.876 0 0 0-.876.876v35.935c0 .485.392.877.876.877h29.903a.876.876 0 0 0 .876-.877v-2.68h.67a.876.876 0 0 0 .877-.877v-8.25a.876.876 0 0 0-.876-.876h-.67V19.746h.67a.876.876 0 0 0 .876-.876v-8.25a.876.876 0 0 0-.876-.876h-.67v-2.68a.876.876 0 0 0-.877-.877Zm-1.547 9.228a.876.876 0 0 0-.876.877v2.578c0 .484.392.876.876.876h.67v10.57h-.67a.876.876 0 0 0-.876.876v2.577a.876.876 0 1 0 1.753 0v-1.7h1.34v6.495h-1.34v-1.701a.876.876 0 1 0-1.753 0v2.578c0 .484.392.876.876.876h.67v1.805H7.94V7.94h28.15v1.804h-.67a.876.876 0 0 0-.876.877v2.577a.876.876 0 1 0 1.753 0v-1.7h1.34v6.495h-1.34v-1.701a.876.876 0 0 0-.877-.877Z" fill="#FBBE07"/></svg>