<svg width="125" height="40" fill="none" xmlns="http://www.w3.org/2000/svg"><path d="M108.356 6.667a1.973 1.973 0 0 0-1.956 1.955v24.8h1.956a1.973 1.973 0 0 0 1.955-1.955v-24.8h-1.955ZM116.711 6.667a1.972 1.972 0 0 0-1.955 1.955v24.8h1.955a1.973 1.973 0 0 0 1.956-1.955v-24.8h-1.956ZM72.8 18.134h7.644a1.973 1.973 0 0 0 1.956-1.956v-1.956h-9.6c-3.111 0-5.867 1.511-7.644 3.823-1.245 1.6-1.956 3.555-1.956 5.777 0 2.134.711 4.178 1.956 5.778 1.777 2.311 4.533 3.822 7.644 3.822h9.6v-1.955a1.973 1.973 0 0 0-1.956-1.956H72.8a5.766 5.766 0 0 1-5.778-5.777c0-3.023 2.578-5.6 5.778-5.6ZM47.111 6.667a1.973 1.973 0 0 0-1.955 1.955v1.956h9.6V33.51h1.955a1.973 1.973 0 0 0 1.956-1.955V10.489h7.644a1.973 1.973 0 0 0 1.956-1.956V6.667H47.11ZM93.156 18.134h7.644a1.973 1.973 0 0 0 1.956-1.956v-1.956h-9.6c-3.112 0-5.867 1.511-7.645 3.823-1.244 1.6-1.956 3.555-1.956 5.777 0 2.223.712 4.178 1.956 5.778 1.778 2.311 4.533 3.822 7.645 3.822h9.6v-1.955a1.973 1.973 0 0 0-1.956-1.956h-7.644c-2.49 0-4.712-1.6-5.423-3.91H99.29v-1.867c0-.978-.8-1.867-1.867-1.867h-9.778c.8-2.134 2.934-3.733 5.511-3.733Z" fill="#831DBF"/><path d="M20.445 39.733c10.849 0 19.644-8.795 19.644-19.644 0-10.85-8.795-19.645-19.644-19.645C9.595.444.8 9.24.8 20.09s8.795 19.644 19.645 19.644Z" fill="url(#a)"/><path d="M23.822 2.578s-.266-.09-.622-.09h-.267a17.722 17.722 0 0 0-2.4-.177c-.8 0-1.777.089-2.4.178h-.266c-.356.089-.623.089-.623.089-.444.089-.266.177-.266.177.178.09.444-.088.71-.088.268-.09.445-.09.712-.178h.267c-.445.089-.89.178-.8.266 0 .09.355 0 .71-.177 1.067-.267.712-.09.712-.09a1.1 1.1 0 0 0-.267.179c0 .177.267.088.89-.267.355-.178.355.089.355.089 0 .089 0 .178.177.266h.178c.178 0 .178-.177.178-.266 0 0-.089-.178.356-.09.622.268.888.356.888.268 0-.09-.088-.09-.266-.178 0 0-.356-.178.71.089l.712.177c0-.088-.356-.177-.8-.266h.267c.266.089.444.089.71.178.267.088.534.177.712.088 0 0 .178-.088-.267-.177Z" fill="#8F34C5"/><path d="M12.711 6.844c-1.511.09-3.378 2.49-2.4 3.29.978.71 3.2-1.245 3.022-2.668 0-.444-.266-.622-.622-.622ZM16.355 6.844c-1.6.09-2.844 2.134-1.866 3.111.978.89 3.111-.266 3.022-1.955-.089-.622-.444-1.156-1.155-1.156ZM20.444 6.844c-1.688.09-2.222 2.045-1.155 3.022 1.066.89 3.022.267 2.844-1.333 0-.978-.8-1.689-1.689-1.689ZM24.622 6.844c-1.422.09-1.51 1.956-.355 2.845 1.155.977 2.755.533 2.666-.711-.089-1.067-1.244-2.134-2.31-2.134ZM28.356 6.844c-1.067.09-.623 1.778.533 2.756 1.067.978 2.222.889 2.133-.178-.089-1.156-1.689-2.578-2.666-2.578ZM10.222 11.733c-1.866.089-2.933 3.022-1.778 4 1.156.978 3.2-.8 2.934-2.755-.09-.711-.534-1.245-1.156-1.245ZM31.022 11.733c-1.6.089-1.51 2.578-.089 3.822 1.156.978 2.4.445 2.4-1.066-.089-1.334-1.244-2.756-2.31-2.756ZM8.889 17.867c-1.867.089-2.222 3.2-.889 4.355 1.244 1.156 2.844-.266 2.667-2.222-.09-1.244-.8-2.133-1.778-2.133ZM14.311 17.867c-2.222.089-2.755 2.933-1.333 4.266 1.422 1.245 3.466.178 3.466-1.866 0-1.334-.888-2.4-2.133-2.4ZM26.756 17.867c-2.223.089-2.845 2.933-1.423 4.266 1.511 1.334 3.823 0 3.556-2.133-.089-1.155-1.067-2.133-2.133-2.133ZM32.356 17.867c-1.867.089-2.312 3.2-.978 4.355 1.244 1.156 2.844-.178 2.666-2.222-.088-1.244-.8-2.133-1.688-2.133ZM14.489 24.444c-1.956.09-2.222 2.4-.889 3.645 1.422 1.244 3.289.355 3.111-1.511-.089-1.156-1.067-2.134-2.222-2.134ZM26.578 24.444c-2.134.09-3.022 2.667-1.778 3.823 1.244 1.244 3.644-.09 3.556-2.045 0-.978-.8-1.778-1.778-1.778ZM15.378 30.222c-1.511.09-1.511 1.6-.445 2.667 1.156 1.066 2.578.8 2.578-.534 0-1.066-1.067-2.133-2.133-2.133ZM20.444 30.222c-1.777.09-2.222 1.867-1.155 2.934 1.155 1.066 2.844.088 2.844-1.334 0-.889-.71-1.6-1.689-1.6ZM25.6 30.222c-1.956.09-2.756 2.311-1.778 3.111.978.8 3.111-.533 3.022-1.955 0-.711-.444-1.156-1.244-1.156Z" fill="#C799E2"/><path d="M15.022 11.733c-2.133.089-2.933 2.845-1.689 3.911 1.422 1.156 3.556-.355 3.378-2.222-.089-.978-.8-1.689-1.689-1.689ZM20.444 11.733c-2.133.089-2.755 2.578-1.422 3.822 1.422 1.156 3.556.178 3.556-1.688 0-1.156-.978-2.134-2.134-2.134ZM26.044 11.733c-1.955.089-2.31 2.4-.977 3.645 1.333 1.244 3.377.622 3.377-1.156 0-1.244-1.155-2.489-2.4-2.489ZM20.444 17.867c-2.31.089-2.933 2.933-1.422 4.266 1.511 1.334 3.911 0 3.734-2.133-.09-1.155-1.156-2.133-2.312-2.133ZM20.444 24.444c-2.133.09-2.755 2.4-1.422 3.645 1.334 1.333 3.645.266 3.556-1.69a2.135 2.135 0 0 0-2.134-1.955Z" fill="#fff"/><path d="M13.956 3.555c-.623.09-3.645 1.778-4 2.134 0 0 .088 0 .266-.09a15.66 15.66 0 0 0 2.045-1.244c.622-.266 1.155-.533 1.689-.8ZM14.667 3.555c-.978.09-3.911 1.867-3.645 2.134.09.089.534 0 1.422-.534.623-.355 2.312-1.422 2.223-1.6.089 0 .089 0 0 0ZM16.178 3.555c-1.245.09-3.378 1.69-2.845 2.134.623.444 3.022-1.422 3.022-2.045 0-.089 0-.089-.177-.089ZM18.222 3.555c-1.066.09-2.489 1.423-1.866 2.045.71.622 2.4-.622 2.31-1.689 0-.178-.088-.356-.444-.356ZM20.444 3.555c-.977.09-1.422 1.245-.8 1.867.712.622 2.045.178 1.867-.8 0-.533-.533-1.067-1.067-1.067ZM22.756 3.555c-.8 0-.445 1.067.177 1.6.89.8 1.956.712 1.956 0-.178-.71-1.511-1.6-2.133-1.6ZM24.8 3.555c-.622.09.711 1.156.711 1.245 1.067.978 2.222 1.244 2.222.711 0-.711-2.222-1.956-2.933-1.956ZM26.222 3.555s-.089 0 0 0c-.089 0-.089 0 0 0 .09.267 1.867 1.423 2.49 1.69 1.066.621 1.155.444 1.155.444 0-.534-3.023-2.223-3.645-2.134Z" fill="#A255CF"/><path d="m26.844 3.555.267.178c.267.178.711.356 1.333.711.712.356 1.423.8 2.045 1.245l.178.089c.088-.356-3.112-2.134-3.823-2.223ZM8.622 6.844c-.444.09-2.933 2.934-2.933 3.378.355-.089 2.933-3.2 2.933-3.378ZM9.956 6.844c-1.067.09-3.29 2.667-2.845 3.29.178.177.711.177 1.689-.89.622-.622 1.333-1.689 1.333-2.222.09-.089 0-.178-.177-.178ZM30.933 6.844c-.71.09.8 2.134 1.778 3.022.622.534 1.067.534 1.067.09 0-1.067-2.045-3.112-2.845-3.112ZM32.178 6.844c0 .178 2.666 3.29 2.933 3.378 0-.444-2.489-3.289-2.933-3.378ZM4.8 11.733c-.533.178-1.778 4.089-1.6 4.267.267-.09.8-1.422.978-1.956.533-1.333.8-2.31.622-2.31ZM6.578 11.733c-1.422.178-2.49 3.556-1.69 4.178.8.622 2.4-1.778 2.312-3.467-.178-.444-.356-.71-.622-.71ZM34.4 11.733c-1.067.089-.089 3.289.978 4.089.622.445 1.066-.089.889-1.155-.178-1.334-1.156-2.934-1.867-2.934ZM36 11.733c-.267.178 1.244 4.178 1.6 4.267.355-.09-1.156-4.09-1.6-4.267ZM2.844 17.867c-.355.177-.355 4.622 0 4.8.445-.178.445-4.623 0-4.8ZM4.8 17.867c-1.333.177-1.422 3.733-.444 4.622.8.711 1.688-.622 1.6-2.489 0-1.244-.534-2.133-1.156-2.133ZM36.178 17.867c-1.334.177-1.245 4-.356 4.71.8.623 1.6-1.333 1.245-3.2-.09-.977-.445-1.51-.89-1.51ZM37.956 17.867c-.356.177-.356 4.622 0 4.8.355-.178.355-4.623 0-4.8ZM3.289 24.444c-.356.178 1.333 4.09 1.6 4.267.178.089 0-.356-.089-.711-.356-1.245-1.244-3.378-1.511-3.556ZM5.156 24.444c-1.156.09-.356 3.111.888 4 .712.534 1.245.09 1.067-.977-.089-1.423-1.155-3.023-1.955-3.023ZM9.156 24.444c-1.6.09-1.512 2.4-.178 3.645 1.244 1.155 2.489.533 2.4-1.067-.09-1.244-1.156-2.578-2.222-2.578ZM32.089 24.444c-1.867.09-2.933 3.111-1.778 4 1.156.978 3.2-.977 2.933-2.844-.177-.711-.533-1.156-1.155-1.156ZM35.822 24.444c-1.333.178-2.4 3.556-1.778 4.178.623.622 2.223-1.778 2.223-3.378 0-.444-.178-.8-.445-.8ZM37.6 24.444c-.356.178-1.956 4.09-1.689 4.267.445-.089 1.956-4.089 1.689-4.267ZM5.867 30.222c0 .445 2.489 3.2 3.022 3.378 0-.178-2.756-3.289-3.022-3.378ZM7.467 30.222c-.8.09.177 1.69 1.422 2.667.711.622 1.511.978 1.422.444 0-.889-1.955-3.11-2.844-3.11ZM10.933 30.222c-1.155.09-.8 1.511.356 2.578.978.889 2.222 1.156 2.222.089-.089-1.156-1.511-2.667-2.578-2.667ZM30.311 30.222c-1.778.09-3.111 2.667-2.4 3.2.8.711 3.289-1.51 3.111-2.666-.178-.445-.533-.534-.71-.534ZM33.511 30.222c-1.155.09-3.2 3.022-2.755 3.29.444.355 3.11-2.045 3.022-3.112a1.281 1.281 0 0 0-.267-.178ZM35.022 30.222c-.355.09-3.022 3.2-3.022 3.378.356 0 2.933-2.933 3.022-3.378ZM10.222 34.666c.09.267 3.29 1.956 4 2.134l-.266-.178c-.267-.178-.712-.355-1.423-.711-.71-.356-1.422-.8-2.133-1.156-.089 0-.089-.089-.178-.089ZM11.378 34.666c-.267 0 .089.356.266.534 1.067.8 3.112 1.689 3.29 1.6 0-.267-3.023-2.133-3.556-2.133ZM13.778 34.666c-.622 0-.178.623.178.978.8.711 2.577 1.422 2.577 1.067 0-.444-1.777-2.044-2.755-2.044ZM16.889 34.666c-.889.09-.8.8-.089 1.423.622.622 1.956 1.155 1.867.266 0-.8-.89-1.688-1.778-1.688ZM20.445 34.666c-1.245.09-1.334 1.245-.623 1.867.8.711 1.778-.178 1.69-1.066 0-.445-.534-.8-1.067-.8ZM24.089 34.666c-1.422.09-2.133 1.6-1.778 2.045.533.444 2.4-.8 2.4-1.6 0-.267-.267-.444-.622-.444ZM27.289 34.666c-1.156.09-3.111 1.867-2.845 2.045.267.267 3.111-1.067 3.111-1.867.09-.089-.088-.178-.266-.178ZM29.511 34.666c-.711.09-3.555 1.956-3.644 2.134.177.089 1.333-.356 2.31-.978.979-.444 1.512-.978 1.334-1.156.089 0 .089 0 0 0ZM30.578 34.666s-.09 0-.178.09c-.8.444-1.511.888-2.311 1.244-.533.267-.978.444-1.511.711.444.089 3.644-1.6 4-2.044Z" fill="#A255CF"/><path d="M17.244 37.511s.267.089.623.089h.266c.623.089 1.511.178 2.4.178.8 0 1.778-.09 2.4-.178h.267c.356-.089.622-.089.622-.089.445-.089.267-.178.267-.178-.178-.089-.445.09-.711.09-.267.088-.445.088-.711.177H22.4c.444-.089.8-.178.8-.267 0-.089-.356 0-.711.178-1.067.267-.711.089-.711.089.178-.089.266-.089.266-.178 0-.178-.266-.089-.888.267-.356.178-.356-.09-.356-.09 0-.088 0-.177-.178-.266h-.178c-.177 0-.177.178-.177.267 0 0 .089.178-.356.089-.622-.267-.889-.356-.889-.267 0 .089.09.089.267.178 0 0 .355.178-.711-.089l-.711-.178c0 .09.355.178.8.267H18.4c-.267-.089-.444-.089-.711-.178-.267-.089-.533-.178-.711-.089 0 .09-.178.09.266.178Z" fill="#8F34C5"/><defs><radialGradient id="a" cx="0" cy="0" r="1" gradientUnits="userSpaceOnUse" gradientTransform="translate(26.159 13.664) scale(14.0108)"><stop stop-color="#fff"/><stop offset=".061" stop-color="#E9D7F4"/><stop offset=".138" stop-color="#D1ACE7"/><stop offset=".221" stop-color="#BC85DD"/><stop offset=".309" stop-color="#AA65D3"/><stop offset=".403" stop-color="#9C4BCC"/><stop offset=".506" stop-color="#9136C6"/><stop offset=".623" stop-color="#8928C2"/><stop offset=".765" stop-color="#8420C0"/><stop offset="1" stop-color="#831DBF"/></radialGradient></defs></svg>